<svg version="1.1" xmlns="http://www.w3.org/2000/svg" viewBox="0 0 1652.4637451171875 955.4574584960938" width="1652.4637451171875" height="955.4574584960938" filter="invert(93%) hue-rotate(180deg)">
  <!-- svg-source:excalidraw -->
  
  <defs>
    <style>
      @font-face {
        font-family: "Virgil";
        src: url("https://excalidraw.com/Virgil.woff2");
      }
      @font-face {
        font-family: "Cascadia";
        src: url("https://excalidraw.com/Cascadia.woff2");
      }
    </style>
  </defs>
  <rect x="0" y="0" width="1652.4637451171875" height="955.4574584960938" fill="#ffffff"></rect><g stroke-linecap="round"><g transform="translate(1371.09716796875 18.576416015625) rotate(0 4.93570702140687 412.58323360162325)"><path d="M-1.14 -0.63 C0.46 136.83, 6.76 687.17, 8.75 824.69 M0.47 1.66 C2.51 139.24, 9.32 688.52, 11.01 825.79" stroke="#000000" stroke-width="1" fill="none"></path></g></g><g transform="translate(1417.020751953125 131.41645593964154) rotate(0 86.5 70)"><text x="0" y="16" font-family="Helvetica, Segoe UI Emoji" font-size="17.436242432187825px" fill="#000000" text-anchor="start" style="white-space: pre;" direction="ltr">display: -func-</text><text x="0" y="36" font-family="Helvetica, Segoe UI Emoji" font-size="17.436242432187825px" fill="#000000" text-anchor="start" style="white-space: pre;" direction="ltr"></text><text x="0" y="56" font-family="Helvetica, Segoe UI Emoji" font-size="17.436242432187825px" fill="#000000" text-anchor="start" style="white-space: pre;" direction="ltr">printHello: -func-</text><text x="0" y="76" font-family="Helvetica, Segoe UI Emoji" font-size="17.436242432187825px" fill="#000000" text-anchor="start" style="white-space: pre;" direction="ltr"></text><text x="0" y="96" font-family="Helvetica, Segoe UI Emoji" font-size="17.436242432187825px" fill="#000000" text-anchor="start" style="white-space: pre;" direction="ltr">blockFor300ms: -func-</text><text x="0" y="116" font-family="Helvetica, Segoe UI Emoji" font-size="17.436242432187825px" fill="#000000" text-anchor="start" style="white-space: pre;" direction="ltr"></text><text x="0" y="136" font-family="Helvetica, Segoe UI Emoji" font-size="17.436242432187825px" fill="#000000" text-anchor="start" style="white-space: pre;" direction="ltr">futureData: </text></g><g transform="translate(1400.2398754882813 22.98046875) rotate(0 119.07525268554684 21.416412353515625)"><text x="119.07525268554683" y="29.83282470703125" font-family="Virgil, Segoe UI Emoji" font-size="34.266259765624994px" fill="#000000" text-anchor="middle" style="white-space: pre;" direction="ltr">Global Memory</text></g><g stroke-linecap="round"><g transform="translate(1399.0810546875 74.71673583984375) rotate(0 120.74646428768983 2.341337102698162)"><path d="M-0.77 0.96 C39.04 1.49, 199.69 2.53, 239.96 2.93 M1.03 0.42 C41.12 1.14, 202.42 3.55, 242.26 4.26" stroke="#000000" stroke-width="1" fill="none"></path></g></g><g transform="translate(1404.2702062988283 571.9238891601562) rotate(0 59 21.5)"><text x="59" y="30" font-family="Virgil, Segoe UI Emoji" font-size="34.266259765624994px" fill="#000000" text-anchor="middle" style="white-space: pre;" direction="ltr">console</text></g><g stroke-linecap="round"><g transform="translate(1397.870849609375 617.667236328125) rotate(0 120.08202614416825 2.0680005112523077)"><path d="M0.88 0.96 C40.74 1.74, 200.45 3.41, 240.29 3.72 M-0.12 0.42 C39.45 0.92, 198.69 1.23, 239.11 1.81" stroke="#000000" stroke-width="1" fill="none"></path></g></g><g stroke-linecap="round"><g transform="translate(729.231689453125 608.2208251953125) rotate(0 316.0693060730724 5.535284151816711)"><path d="M0.15 0.07 C105.82 1.73, 527.97 8.73, 633.37 10.72 M-1.23 -0.93 C104.33 0.82, 526.36 10.16, 632.39 12" stroke="#000000" stroke-width="1" fill="none"></path></g></g><g transform="translate(821.7630041503908 637.444580078125) rotate(0 190 21.5)"><text x="190" y="30" font-family="Virgil, Segoe UI Emoji" font-size="34.266259765624994px" fill="#1864ab" text-anchor="middle" style="white-space: pre;" direction="ltr">Web Browser Features</text></g><g transform="translate(736.4466552734375 696.1702880859375) rotate(0 21.5 11.5)"><text x="21.5" y="18" font-family="Helvetica, Segoe UI Emoji" font-size="20px" fill="#1864ab" text-anchor="middle" style="white-space: pre;" direction="ltr">Type</text></g><g transform="translate(940.2982177734375 699.9332275390625) rotate(0 43 11.5)"><text x="43" y="18" font-family="Helvetica, Segoe UI Emoji" font-size="20px" fill="#1864ab" text-anchor="middle" style="white-space: pre;" direction="ltr">Complete</text></g><g transform="translate(1148.2730712890625 700.474853515625) rotate(0 54 11.5)"><text x="54" y="18" font-family="Helvetica, Segoe UI Emoji" font-size="20px" fill="#1864ab" text-anchor="middle" style="white-space: pre;" direction="ltr">onComplete</text></g><g transform="translate(689.8187255859375 763.02587890625) rotate(0 68 11.5)"><text x="68" y="18" font-family="Helvetica, Segoe UI Emoji" font-size="20px" fill="#1864ab" text-anchor="middle" style="white-space: pre;" direction="ltr">Timer(duration)</text></g><g transform="translate(947.681640625 763.6669311523438) rotate(0 19 11.5)"><text x="19" y="18" font-family="Helvetica, Segoe UI Emoji" font-size="20px" fill="#087f5b" text-anchor="middle" style="white-space: pre;" direction="ltr">0ms</text></g><g transform="translate(1159.6103515625 769.31298828125) rotate(0 49 11.5)"><text x="49" y="18" font-family="Helvetica, Segoe UI Emoji" font-size="20px" fill="#1864ab" text-anchor="middle" style="white-space: pre;" direction="ltr">-printHello-</text></g><g transform="translate(819.778076171875 48.99456787109375) rotate(0 146.5 12)"><text x="146.5" y="19" font-family="Cascadia, Segoe UI Emoji" font-size="20px" fill="#000000" text-anchor="middle" style="white-space: pre;" direction="ltr">setTimeout(printHello, 0)</text></g><g transform="translate(761.2327880859375 48.291748046875) rotate(0 19 11.5)"><text x="19" y="18" font-family="Helvetica, Segoe UI Emoji" font-size="20px" fill="#087f5b" text-anchor="middle" style="white-space: pre;" direction="ltr">0ms</text></g><g stroke-linecap="round"><g transform="translate(858.386962890625 84.25830078125) rotate(0 32.05981583532986 20.25957030371805)"><path d="M0.49 -0.66 C-0.18 5.15, -17.3 27.58, -5.02 34.31 C7.26 41.04, 60.98 38.94, 74.16 39.7 M-0.71 1.61 C-1.37 7.62, -17.86 28.94, -5.5 35.53 C6.86 42.13, 60.14 40.49, 73.44 41.18" stroke="#1864ab" stroke-width="1" fill="none"></path></g><g transform="translate(858.386962890625 84.25830078125) rotate(0 32.05981583532986 20.25957030371805)"><path d="M44.01 52.55 C50.28 48.93, 57.89 46.6, 72.52 39.78 M44.55 51.34 C53.76 47.97, 61.72 45.69, 72.52 40.93" stroke="#1864ab" stroke-width="1" fill="none"></path></g><g transform="translate(858.386962890625 84.25830078125) rotate(0 32.05981583532986 20.25957030371805)"><path d="M44.29 32.03 C50.4 32.85, 57.95 34.94, 72.52 39.78 M44.83 30.83 C53.91 33.45, 61.79 37.17, 72.52 40.93" stroke="#1864ab" stroke-width="1" fill="none"></path></g></g><g transform="translate(942.775146484375 110.4794921875) rotate(0 87.5 11.5)"><text x="87.5" y="18" font-family="Helvetica, Segoe UI Emoji" font-size="20px" fill="#1864ab" text-anchor="middle" style="white-space: pre;" direction="ltr">web browser: Timer</text></g><g stroke-linecap="round"><g transform="translate(962.3334692165546 72.99456787109375) rotate(0 59.20116944236753 21.837605596752837)"><path d="M0.08 0.3 C19.88 7.57, 99.93 35.82, 119.75 43.01 M-1.34 -0.58 C18.22 6.89, 98.32 36.71, 118.77 44.26" stroke="#1864ab" stroke-width="1" fill="none"></path></g><g transform="translate(962.3334692165546 72.99456787109375) rotate(0 59.20116944236753 21.837605596752837)"><path d="M89.28 43.99 C99.09 42.73, 111.09 43.73, 118.94 43.14 M88.79 44.5 C97.71 43.94, 109.28 44.99, 119.37 43.4" stroke="#1864ab" stroke-width="1" fill="none"></path></g><g transform="translate(962.3334692165546 72.99456787109375) rotate(0 59.20116944236753 21.837605596752837)"><path d="M96.42 24.75 C103.47 30.69, 112.79 38.9, 118.94 43.14 M95.93 25.27 C102.57 31.01, 111.79 38.39, 119.37 43.4" stroke="#1864ab" stroke-width="1" fill="none"></path></g></g><g stroke-linecap="round"><g transform="translate(1032.5161974738885 72.99456787109375) rotate(0 26.486473478218556 22.124077758365303)"><path d="M-0.05 -0.55 C8.65 6.62, 43.42 35.96, 52.23 43.3 M-1.53 1.78 C7.53 9.12, 45.6 37.61, 54.5 44.79" stroke="#1864ab" stroke-width="1" fill="none"></path></g><g transform="translate(1032.5161974738885 72.99456787109375) rotate(0 26.486473478218556 22.124077758365303)"><path d="M25.01 34.27 C34.55 38.01, 43.62 40.15, 55.08 45.48 M25.01 35.42 C34.78 38.86, 42.65 39.84, 54.22 45.68" stroke="#1864ab" stroke-width="1" fill="none"></path></g><g transform="translate(1032.5161974738885 72.99456787109375) rotate(0 26.486473478218556 22.124077758365303)"><path d="M37.57 18.03 C43.3 26.74, 48.52 33.86, 55.08 45.48 M37.56 19.19 C43.79 27.27, 48.12 32.82, 54.22 45.68" stroke="#1864ab" stroke-width="1" fill="none"></path></g></g><g transform="translate(826.5093994140625 167.31808471679688) rotate(0 58.5 12)"><text x="58.5" y="19" font-family="Cascadia, Segoe UI Emoji" font-size="20px" fill="#000000" text-anchor="middle" style="white-space: pre;" direction="ltr">fetch(URL)</text></g><g transform="translate(766.4444580078125 167.95498657226562) rotate(0 19 11.5)"><text x="19" y="18" font-family="Helvetica, Segoe UI Emoji" font-size="20px" fill="#087f5b" text-anchor="middle" style="white-space: pre;" direction="ltr">1ms</text></g><g stroke-linecap="round"><g transform="translate(860.6333792028088 201.28558349609375) rotate(0 -19.322509462147707 31.34552194901468)"><path d="M-1.19 0.92 C-2.05 9.13, 0.71 40.16, -5.41 50.39 C-11.54 60.62, -32.78 60.34, -37.93 62.33 M0.38 0.36 C-0.65 9.21, -0.07 41.5, -6.64 51.5 C-13.21 61.5, -34.22 58.93, -39.03 60.36" stroke="#000000" stroke-width="1" fill="none"></path></g><g transform="translate(860.6333792028088 201.28558349609375) rotate(0 -19.322509462147707 31.34552194901468)"><path d="M-22.26 52.47 C-28.93 54.14, -31.01 58.44, -38.07 59.22 M-23.93 52.78 C-28.53 56.71, -34.15 58.87, -39 60.4" stroke="#000000" stroke-width="1" fill="none"></path></g><g transform="translate(860.6333792028088 201.28558349609375) rotate(0 -19.322509462147707 31.34552194901468)"><path d="M-21.3 64.07 C-28.34 62.53, -30.69 63.63, -38.07 59.22 M-22.96 64.38 C-27.88 64.22, -33.83 62.27, -39 60.4" stroke="#000000" stroke-width="1" fill="none"></path></g></g><g stroke-linecap="round"><g transform="translate(886.688164834897 204.0716552734375) rotate(0 10.315689402934765 30.815515973465523)"><path d="M0.73 0.3 C-0.49 8.41, -11.38 38.18, -6.59 48.26 C-1.81 58.34, 23.48 58.6, 29.44 60.76 M-0.35 -0.59 C-1.79 7.75, -12.41 39.25, -7.55 49.72 C-2.7 60.18, 22.61 60.66, 28.77 62.22" stroke="#1864ab" stroke-width="1" fill="none"></path></g><g transform="translate(886.688164834897 204.0716552734375) rotate(0 10.315689402934765 30.815515973465523)"><path d="M10.74 66 C16.66 64.86, 23.93 63.09, 29.93 60.38 M9.92 66.28 C13.95 64.51, 20.02 64.25, 28.7 62.03" stroke="#1864ab" stroke-width="1" fill="none"></path></g><g transform="translate(886.688164834897 204.0716552734375) rotate(0 10.315689402934765 30.815515973465523)"><path d="M12.61 53.2 C17.82 56.66, 24.42 59.47, 29.93 60.38 M11.79 53.49 C15.3 54.88, 20.9 57.78, 28.7 62.03" stroke="#1864ab" stroke-width="1" fill="none"></path></g></g><g transform="translate(929.708984375 254.92059326171875) rotate(0 135 11.5)"><text x="135" y="18" font-family="Helvetica, Segoe UI Emoji" font-size="20px" fill="#1864ab" text-anchor="middle" style="white-space: pre;" direction="ltr">web browser: Network request</text></g><g transform="translate(688.6038818359375 828.1495361328125) rotate(0 75.5 23)"><text x="75.5" y="18" font-family="Helvetica, Segoe UI Emoji" font-size="20px" fill="#1864ab" text-anchor="middle" style="white-space: pre;" direction="ltr"> Network request</text><text x="75.5" y="41" font-family="Helvetica, Segoe UI Emoji" font-size="20px" fill="#1864ab" text-anchor="middle" style="white-space: pre;" direction="ltr">(URL, method)</text></g><g stroke-linecap="round"><g transform="translate(900.9269400766966 197.330810546875) rotate(0 90.06738675654822 29.604029379272845)"><path d="M-0.16 1.03 C30.13 10.71, 151.42 48.25, 181.84 57.65 M-1.71 0.52 C28.43 10.36, 150.4 49.08, 181.02 58.69" stroke="#1864ab" stroke-width="1" fill="none"></path></g><g transform="translate(900.9269400766966 197.330810546875) rotate(0 90.06738675654822 29.604029379272845)"><path d="M152.76 60.38 C158.72 60.95, 167.64 60.37, 179.94 59.62 M152 59.89 C159.47 59.64, 167.83 59.71, 180.68 58.49" stroke="#1864ab" stroke-width="1" fill="none"></path></g><g transform="translate(900.9269400766966 197.330810546875) rotate(0 90.06738675654822 29.604029379272845)"><path d="M158.94 40.82 C162.92 47.42, 169.93 52.89, 179.94 59.62 M158.19 40.32 C163.73 45.83, 170.28 51.67, 180.68 58.49" stroke="#1864ab" stroke-width="1" fill="none"></path></g></g><g transform="translate(1507.4637451171875 251.57855224609375) rotate(0 67.5 34.5)"><text x="67.5" y="18" font-family="Helvetica, Segoe UI Emoji" font-size="20px" fill="#c92a2a" text-anchor="middle" style="white-space: pre;" direction="ltr">{value: ...,</text><text x="67.5" y="41" font-family="Helvetica, Segoe UI Emoji" font-size="20px" fill="#c92a2a" text-anchor="middle" style="white-space: pre;" direction="ltr">onFulfilled: [],</text><text x="67.5" y="64" font-family="Helvetica, Segoe UI Emoji" font-size="20px" fill="#c92a2a" text-anchor="middle" style="white-space: pre;" direction="ltr">onRejection:[] }</text></g><g stroke-linecap="round"><g transform="translate(171.0538330078125 59.026123046875) rotate(0 84.66545516453017 143.32738970620628)"><path d="M0.86 -0.28 C-1.99 72.86, -2.89 145.38, -0.15 291.38 M-0.29 -0.11 C1.56 114.67, 0.57 229.68, -0.73 291.05 M-2.05 290.62 C42.58 289.96, 85.6 293.01, 170.99 293.2 M-1.6 291.99 C45.66 291.59, 91.04 291.84, 170.45 292.31 M169.98 291.86 C166.72 202.03, 166.21 109.02, 166.01 -5.97 M171.25 292.52 C172.06 185.69, 169.19 77.74, 166.13 -6.55" stroke="#000000" stroke-width="1" fill="none"></path></g></g><g transform="translate(181.3521728515625 10) rotate(0 69.5 17.5)"><text x="69.5" y="25" font-family="Virgil, Segoe UI Emoji" font-size="28px" fill="#000000" text-anchor="middle" style="white-space: pre;" direction="ltr">call stack</text></g><g stroke-linecap="round"><g transform="translate(172.34130859375 297.6947021484375) rotate(0 83.57360377069563 0.511971659257199)"><path d="M-1.77 -0.38 C48.23 0.69, 96.68 2.35, 168.4 0.71 M-0.67 0.94 C48.21 -0.13, 95.86 0.9, 168.92 0.85" stroke="#000000" stroke-width="1" fill="none"></path></g></g><g transform="translate(198.4749755859375 314.4451904296875) rotate(0 47 12)"><text x="47" y="19" font-family="Cascadia, Segoe UI Emoji" font-size="20px" fill="#000000" text-anchor="middle" style="white-space: pre;" direction="ltr">global()</text></g><g stroke-linecap="round"><g transform="translate(296.1270598533017 684.8096819474113) rotate(90.09395173992681 41.05363535534745 147.4440965515057)"><path d="M-0.25 -1.03 C-1.03 110.06, -1.56 218.29, -1.55 297.69 M0.16 0.88 C-1.78 102.78, -2.57 205.71, -0.12 298.92 M-2.6 297.46 C28.22 300.63, 61.9 301.06, 82.12 299.01 M-1.29 298.5 C20.32 298.74, 40.58 299.7, 83.54 301.85 M84.7 299.85 C81.66 195.91, 80.55 90, 82.35 -6.97 M84.06 300.92 C83.08 216.46, 83.14 130.65, 81.63 -5.99" stroke="#000000" stroke-width="1" fill="none"></path></g></g><g transform="translate(146.86921070742127 744.6319864395049) rotate(359.5736821286345 188 17.5)"><text x="188" y="25" font-family="Virgil, Segoe UI Emoji" font-size="28px" fill="#000000" text-anchor="middle" style="white-space: pre;" direction="ltr">callback queue(task queue)</text></g><g transform="translate(819.283447265625 304.6969299316406) rotate(0 140.5 12)"><text x="140.5" y="19" font-family="Cascadia, Segoe UI Emoji" font-size="20px" fill="#000000" text-anchor="middle" style="white-space: pre;" direction="ltr">futureData.then(display)</text></g><g stroke-linecap="round" transform="translate(762.7784423828125 165.21221923828125) rotate(0 23.767333984375 14.352783203125)"><path d="M1.15 -0.49 C11.48 2.11, 19.9 1.38, 48.96 0.2 M0.75 -0.3 C14.86 -0.26, 32.34 0.39, 48.07 0.75 M49.26 -1.01 C45.58 9.57, 45.55 21.58, 46.71 27.78 M46.64 -0.61 C47.75 6.8, 47.12 13.3, 47.98 28.35 M48.44 27.46 C31.86 29.68, 16.33 30.27, -1.65 26.78 M46.72 28.16 C34.27 28.13, 22.88 28.05, -0.11 28.26 M0.79 27.7 C0.08 19.59, 1.06 6.44, -0.5 1.36 M0.29 29.3 C-0.7 21.76, -0.35 12.57, -0.13 0.75" stroke="#087f5b" stroke-width="1" fill="none"></path></g><g stroke-linecap="round" transform="translate(756.7645263671875 46.306427001953125) rotate(0 23.767333984375 14.352783203125)"><path d="M-1.33 1.12 C11.87 1.67, 26.03 1.51, 47.72 1.7 M-0.68 0.9 C16.48 0.3, 32.79 -0.75, 47.44 -0.81 M45.98 -1.91 C48.8 13.08, 45.72 21.28, 48.79 27.43 M47.86 -0.6 C46.39 8.98, 48.03 19.01, 47.02 29.39 M48.62 27.81 C34.45 29.73, 20.71 26.52, -0.65 27.72 M47.98 29.59 C34.91 28.6, 21.43 29.54, 0.31 28.05 M-1.49 29.43 C0.02 21.23, -0.12 11.76, -1.21 1.33 M0.91 28.21 C-0.84 21.7, 0.69 15.99, -0.02 -0.87" stroke="#087f5b" stroke-width="1" fill="none"></path></g><g stroke-linecap="round" transform="translate(941.7479248046875 763.5240173339844) rotate(0 23.767333984375 14.352783203125)"><path d="M0.69 1.63 C12.63 -2.27, 27.27 -1.86, 49.23 -0.77 M-0.14 0.53 C10.23 -0.23, 19.56 0.51, 48.13 -0.06 M46.88 -0.12 C45.96 7.05, 47.16 15.02, 45.85 29.13 M48.34 0.37 C48.11 6.21, 48.14 14.38, 47.39 27.81 M48.39 29.89 C36.96 28.9, 23.27 28.06, 0.49 29.64 M48.11 27.87 C31.39 28.91, 12.71 29.22, 0.04 29.6 M1.67 27.89 C-2.07 19.46, -1.01 7.64, -0.79 0.31 M0.79 29.57 C-0.47 16.39, 0.43 5.25, -0.59 0.94" stroke="#087f5b" stroke-width="1" fill="none"></path></g><g transform="translate(1001.78466796875 765.9385375976562) rotate(0 16.5 11.5)"><text x="16.5" y="18" font-family="Helvetica, Segoe UI Emoji" font-size="20px" fill="#087f5b" text-anchor="middle" style="white-space: pre;" direction="ltr">Yes</text></g><g transform="translate(949.614013671875 833.9701538085938) rotate(0 19 11.5)"><text x="19" y="18" font-family="Helvetica, Segoe UI Emoji" font-size="20px" fill="#087f5b" text-anchor="middle" style="white-space: pre;" direction="ltr">1ms</text></g><g stroke-linecap="round" transform="translate(943.6802978515625 833.8272399902344) rotate(0 23.767333984375 14.352783203125)"><path d="M-1.69 1.86 C12.58 0.72, 21.47 -0.81, 47.93 0.81 M0.95 -0.29 C17.7 -0.55, 34.26 0.54, 47.49 -0.13 M47.11 0.12 C46.25 13.12, 46.05 20.97, 46.06 27.7 M47.52 0.92 C48.05 10.73, 46.91 19.86, 46.65 28.77 M48.06 29.33 C35.56 27.37, 21.79 26.9, 1.93 26.86 M48.34 27.98 C29.92 29.08, 13 29.49, -0.73 28.99 M-1.44 27.15 C-0.22 19.37, 0.69 12.45, -1.67 -0.48 M0.6 29.66 C-0.26 19.3, 0.25 7.75, 0.37 0.24" stroke="#087f5b" stroke-width="1" fill="none"></path></g><g transform="translate(1007.217041015625 836.2417602539062) rotate(0 13 11.5)"><text x="13" y="18" font-family="Helvetica, Segoe UI Emoji" font-size="20px" fill="#087f5b" text-anchor="middle" style="white-space: pre;" direction="ltr">No</text></g><g transform="translate(1098.84033203125 833.0436401367188) rotate(0 129 12)"><text x="129" y="19" font-family="Cascadia, Segoe UI Emoji" font-size="20px" fill="#c92a2a" text-anchor="middle" style="white-space: pre;" direction="ltr">futureData.value = ___</text></g><g transform="translate(761.7044677734375 365.6804504394531) rotate(0 19 11.5)"><text x="19" y="18" font-family="Helvetica, Segoe UI Emoji" font-size="20px" fill="#087f5b" text-anchor="middle" style="white-space: pre;" direction="ltr">2ms</text></g><g stroke-linecap="round" transform="translate(758.0384521484375 362.93768310546875) rotate(0 23.767333984375 14.352783203125)"><path d="M-0.34 1.82 C17.05 1.82, 29.96 0.94, 48.09 0.49 M-0.64 -0.65 C11.12 -0.99, 22.07 -0.41, 46.55 0.77 M49.27 -0.35 C48.77 10.83, 48.98 22.42, 48.94 28.68 M47.97 -0.8 C46.92 6.38, 48.45 11.89, 46.92 28.76 M46.05 28.67 C33.78 29.25, 20.63 30.03, -1.55 29.8 M46.74 28.23 C36.48 28.89, 27.53 27.97, -0.23 28.86 M0.12 27.07 C-1.68 17.45, -1.72 7.09, -1.33 1.12 M0.65 28.8 C0.64 20.89, -0.84 13.27, -0.68 0.9" stroke="#087f5b" stroke-width="1" fill="none"></path></g><g transform="translate(827.31689453125 366.6509704589844) rotate(0 88 12)"><text x="88" y="19" font-family="Cascadia, Segoe UI Emoji" font-size="20px" fill="#000000" text-anchor="middle" style="white-space: pre;" direction="ltr">blockFor300ms()</text></g><g stroke-linecap="round" transform="translate(814.70703125 399.36566162109375) rotate(0 117.6063232421875 25.92852783203125)"><path d="M1.5 0.83 C66.88 0.4, 134.1 0.81, 235.78 0.69 M-0.71 0.8 C52.04 -0.19, 105.75 0.93, 234.99 -0.33 M234.66 -0.79 C236.07 15.18, 236.43 31.84, 234.7 50.45 M234.44 -0.12 C235.05 10.42, 236.24 21.12, 234.92 51.83 M234.88 52.81 C161.21 49.24, 86.23 50.9, -0.33 50.94 M234.38 51.43 C166.65 53.2, 97.18 52.68, 0.48 51.87 M1.21 50.42 C-1.32 32.95, 1.01 12.39, -1.17 1.26 M0.59 51.82 C1.14 32.46, 0.24 13.5, -0.46 0.98" stroke="#000000" stroke-width="1" fill="none"></path></g><g stroke-linecap="round"><g transform="translate(787.0509033203125 387.91998291015625) rotate(0 21.42265149578452 15.122793793530661)"><path d="M0.15 1.21 C11.79 7.83, 26.85 19.24, 42.7 28.94 M0.59 0.59 C15.8 12.02, 31.01 22.05, 42.6 29.65" stroke="#000000" stroke-width="1" fill="none"></path></g><g transform="translate(787.0509033203125 387.91998291015625) rotate(0 21.42265149578452 15.122793793530661)"><path d="M17.18 24.75 C23.35 24.28, 33.12 28.46, 42.2 28.48 M17.62 24.14 C26.31 26.77, 35.16 28.09, 42.1 29.19" stroke="#000000" stroke-width="1" fill="none"></path></g><g transform="translate(787.0509033203125 387.91998291015625) rotate(0 21.42265149578452 15.122793793530661)"><path d="M27.09 9.74 C30.38 13.88, 37.17 22.58, 42.2 28.48 M27.53 9.13 C32.72 17.17, 37.97 23.93, 42.1 29.19" stroke="#000000" stroke-width="1" fill="none"></path></g></g><g transform="translate(935.31298828125 918.1295166015625) rotate(0 30 11.5)"><text x="30" y="18" font-family="Helvetica, Segoe UI Emoji" font-size="20px" fill="#087f5b" text-anchor="middle" style="white-space: pre;" direction="ltr">270ms</text></g><g stroke-linecap="round" transform="translate(934.258544921875 914.4482116699219) rotate(0 30.69952392578125 14.190521240234375)"><path d="M-1.9 0.46 C19.84 2.03, 40.69 -1.57, 61.83 1.51 M0.49 0.17 C17.25 -0.07, 36.11 -0.74, 61.05 0.88 M61.25 -1.01 C59.97 7.3, 61.79 12.52, 60.12 26.67 M60.45 0.68 C60.5 7.31, 62.03 13.25, 61.75 28.96 M59.72 26.59 C42.53 28.76, 27.18 29.51, 1.76 28.56 M61.95 28.28 C38.5 28.29, 14.88 28.67, -0.33 28.73 M1.53 30.06 C-0.59 22.85, 0.48 13.68, -0.87 1.62 M-0.93 28.97 C-0.57 16.41, -0.87 5.7, 0.81 0.11" stroke="#087f5b" stroke-width="1" fill="none"></path></g><g transform="translate(1009.061767578125 916.8627319335938) rotate(0 15.5 11.5)"><text x="15.5" y="18" font-family="Helvetica, Segoe UI Emoji" font-size="20px" fill="#087f5b" text-anchor="middle" style="white-space: pre;" direction="ltr">yes</text></g><g transform="translate(728.303466796875 921.4574584960938) rotate(0 23.5 12)"><text x="23.5" y="19" font-family="Cascadia, Segoe UI Emoji" font-size="20px" fill="#5f3dc4" text-anchor="middle" style="white-space: pre;" direction="ltr">'hi'</text></g><g transform="translate(1040.576171875 918.48046875) rotate(0 23.5 12)"><text x="23.5" y="19" font-family="Cascadia, Segoe UI Emoji" font-size="20px" fill="#5f3dc4" text-anchor="middle" style="white-space: pre;" direction="ltr">'hi'</text></g><g transform="translate(1117.5576171875 915.4013061523438) rotate(0 111.5 12)"><text x="111.5" y="19" font-family="Cascadia, Segoe UI Emoji" font-size="20px" fill="#c92a2a" text-anchor="middle" style="white-space: pre;" direction="ltr">futureData.value = </text></g><g transform="translate(1330.2657470703125 917.4437866210938) rotate(0 23.5 12)"><text x="23.5" y="19" font-family="Cascadia, Segoe UI Emoji" font-size="20px" fill="#5f3dc4" text-anchor="middle" style="white-space: pre;" direction="ltr">'hi'</text></g><g stroke-linecap="round"><g transform="translate(341.1138916015625 798.1171875) rotate(0 0.31432719022549804 40.17238877899945)"><path d="M0.97 1.83 C0.37 24.53, -1.27 44.6, 0.36 79.87 M-0.06 -0.03 C-0.54 30.8, 1.11 60.87, 0.1 80.38" stroke="#364fc7" stroke-width="1" fill="none"></path></g></g><g transform="translate(192.45239257812497 819.6354370117188) rotate(0 70.5 12)"><text x="70.5" y="19" font-family="Cascadia, Segoe UI Emoji" font-size="20px" fill="#364fc7" text-anchor="middle" style="white-space: pre;" direction="ltr">-printHello-</text></g><g transform="translate(839.660888671875 413.2490234375) rotate(0 30 11.5)"><text x="30" y="18" font-family="Helvetica, Segoe UI Emoji" font-size="20px" fill="#087f5b" text-anchor="middle" style="white-space: pre;" direction="ltr">270ms</text></g><g stroke-linecap="round" transform="translate(838.6064453125 409.5677185058594) rotate(0 30.69952392578125 14.190521240234375)"><path d="M-1.56 0.6 C19.14 0.84, 33.93 -0.2, 61.89 -1.74 M-0.41 -0.65 C22.52 -0.15, 45.2 0.39, 61.57 0.5 M63.3 1.46 C60.65 9.02, 63.3 15.61, 63.1 28.29 M62.23 0.46 C60.64 9.62, 60.82 17.72, 61.92 28.75 M60.42 27.34 C40.94 26.71, 24.83 29.12, 0.24 28.73 M61.12 27.65 C45.56 27.4, 29.34 27.46, 0.94 29.25 M1.54 27.71 C-1.78 21.59, -1.68 12.33, 1.17 0.94 M0.54 28.55 C0.46 19.27, -0.03 10.01, 0.95 -0.58" stroke="#087f5b" stroke-width="1" fill="none"></path></g><g transform="translate(745.16845703125 486.64813232421875) rotate(0 30 11.5)"><text x="30" y="18" font-family="Helvetica, Segoe UI Emoji" font-size="20px" fill="#087f5b" text-anchor="middle" style="white-space: pre;" direction="ltr">302ms</text></g><g stroke-linecap="round" transform="translate(744.114013671875 482.9668273925781) rotate(0 30.69952392578125 14.190521240234375)"><path d="M-0.92 1.78 C14.17 1.7, 30.55 -0.03, 63.04 -0.59 M0.19 -0.58 C19.98 0.79, 39.17 -0.16, 61.93 -0.08 M62.08 -0.34 C59.63 4.77, 59.58 13.3, 61.66 28.35 M62.26 0.25 C60.53 7.87, 61.18 16.77, 62.34 28.07 M61.08 29.92 C40.66 27.81, 15.73 28.24, 0.74 30.26 M61.71 29.21 C46.62 29.79, 30.82 28.59, 0.98 29.29 M0.97 30.32 C0.43 19.82, -0.19 11.62, -0.26 0.47 M0.9 27.55 C-0.3 19.5, 0.9 12.61, 0.76 -0.9" stroke="#087f5b" stroke-width="1" fill="none"></path></g><g transform="translate(815.489013671875 485.3411560058594) rotate(0 135 12)"><text x="135" y="19" font-family="Cascadia, Segoe UI Emoji" font-size="20px" fill="#000000" text-anchor="middle" style="white-space: pre;" direction="ltr">console.log('me first')</text></g><g transform="translate(1473.72705078125 644.8977355957031) rotate(0 58.5 12)"><text x="58.5" y="19" font-family="Cascadia, Segoe UI Emoji" font-size="20px" fill="#000000" text-anchor="middle" style="white-space: pre;" direction="ltr">'me first'</text></g><g transform="translate(227.0338835589838 492.20907384184864) rotate(359.5736821286345 110.5 17.5)"><text x="110.5" y="25" font-family="Virgil, Segoe UI Emoji" font-size="28px" fill="#000000" text-anchor="middle" style="white-space: pre;" direction="ltr">microtask queue</text></g><g stroke-linecap="round"><g transform="translate(186.4918212890625 834.3783154508444) rotate(0 -65.21123287733646 -290.7035444724546)"><path d="M1.58 1.48 C-42.93 1.34, -90.65 -2.12, -129.73 -1.12 M0.06 -0.47 C-45.6 -2.46, -92.48 -2.29, -132 -3.21 M-131.33 -1.95 C-130.32 -219.81, -128.02 -438.24, -126.4 -580.83 M-131.16 -2.29 C-128.01 -159.76, -127.16 -316.43, -127.23 -581.1 M-126.84 -582.89 C-92.35 -580.78, -60.76 -581.1, -9.8 -579.57 M-126.2 -581.72 C-88.87 -579.96, -49.78 -580.91, -11.12 -581.77" stroke="#000000" stroke-width="1" fill="none"></path></g><g transform="translate(186.4918212890625 834.3783154508444) rotate(0 -65.21123287733646 -290.7035444724546)"><path d="M-37.51 -569.44 C-28.27 -573.24, -22.16 -579.61, -9.78 -580.65 M-39.04 -571.39 C-28.29 -574.96, -18.71 -577.85, -12.05 -582.74" stroke="#000000" stroke-width="1" fill="none"></path></g><g transform="translate(186.4918212890625 834.3783154508444) rotate(0 -65.21123287733646 -290.7035444724546)"><path d="M-37.94 -589.96 C-28.37 -586.81, -22.12 -586.24, -9.78 -580.65 M-39.47 -591.91 C-28.43 -588.19, -18.7 -583.79, -12.05 -582.74" stroke="#000000" stroke-width="1" fill="none"></path></g></g><g stroke-linecap="round"><g transform="translate(174.508544921875 595.8501586914062) rotate(0 -58.658695949241526 -2.4452492276022326)"><path d="M-0.27 -1 C-35.08 0.36, -69.58 -2.28, -116.67 -4.56 M-0.22 -0.59 C-40.51 0.54, -80.18 -2.17, -117.09 -3.1" stroke="#000000" stroke-width="1" fill="none"></path></g></g><g stroke-linecap="round"><g transform="translate(176.50737786392216 483.03765869140625) rotate(0 -22.269706965484655 -8.91863946390805)"><path d="M-0.97 -0.96 C-5.75 2.5, -20.9 21.3, -28.71 20.27 C-36.51 19.25, -48.82 2.26, -47.79 -7.11 C-46.75 -16.48, -31.06 -35.05, -22.51 -35.96 C-13.96 -36.87, -0.71 -16.42, 3.5 -12.54 M0.72 1.16 C-3.7 4.28, -18.43 20.03, -26.56 18.33 C-34.69 16.63, -48.84 0.36, -48.04 -9.04 C-47.24 -18.45, -30.15 -37.66, -21.75 -38.11 C-13.35 -38.56, -1.95 -15.85, 2.36 -11.74" stroke="#d9480f" stroke-width="1" fill="none"></path></g><g transform="translate(176.50737786392216 483.03765869140625) rotate(0 -22.269706965484655 -8.91863946390805)"><path d="M-13.65 -23.17 C-7.4 -17.08, -2.4 -14.14, 3.5 -10.8 M-11.38 -20.73 C-7.43 -18.89, -1.53 -14.8, 2.81 -11.16" stroke="#d9480f" stroke-width="1" fill="none"></path></g><g transform="translate(176.50737786392216 483.03765869140625) rotate(0 -22.269706965484655 -8.91863946390805)"><path d="M-3.9 -30.25 C-0.6 -22.13, 1.49 -17.06, 3.5 -10.8 M-1.63 -27.81 C-1.26 -23.33, 1.07 -16.64, 2.81 -11.16" stroke="#d9480f" stroke-width="1" fill="none"></path></g></g><g transform="translate(95.7376708984375 405.67791748046875) rotate(0 58.5 12)"><text x="58.5" y="19" font-family="Cascadia, Segoe UI Emoji" font-size="20px" fill="#d9480f" text-anchor="middle" style="white-space: pre;" direction="ltr">Event loop</text></g><g stroke-linecap="round"><g transform="translate(172.360107421875 238.48248291015625) rotate(0 82.44242313280702 0.9522675717342679)"><path d="M-0.74 0.24 C26.91 0.46, 138.12 1.28, 165.63 1.59 M1.07 -0.68 C28.6 -0.37, 137.21 1.95, 164.8 2.59" stroke="#000000" stroke-width="1" fill="none"></path></g></g><g transform="translate(183.489990234375 259.9609375) rotate(0 76 12)"><text x="76" y="19" font-family="Cascadia, Segoe UI Emoji" font-size="20px" fill="#000000" text-anchor="middle" style="white-space: pre;" direction="ltr">display('hi')</text></g><g transform="translate(745.638671875 528.8073120117188) rotate(0 30 11.5)"><text x="30" y="18" font-family="Helvetica, Segoe UI Emoji" font-size="20px" fill="#087f5b" text-anchor="middle" style="white-space: pre;" direction="ltr">303ms</text></g><g stroke-linecap="round" transform="translate(744.584228515625 525.1260070800781) rotate(0 30.69952392578125 14.190521240234375)"><path d="M-1.23 -0.62 C25.52 -0.93, 48.16 -1.68, 61.22 0.38 M-0.09 -0.21 C15.42 -0.54, 28.79 -1.16, 62.25 0.34 M59.78 1.88 C61.43 8.01, 61 14.31, 61.16 30.11 M61.43 0.23 C62.16 8.92, 61.78 18.61, 60.64 28.22 M59.47 28.71 C39.01 30.22, 14.18 27.33, 1.4 29 M61.78 28.16 C38.86 29.89, 14.03 29.46, 0.72 28.87 M-0.05 26.82 C-0.34 17.59, -0.24 5.1, -1.66 1.81 M0.8 29.2 C0.87 21.34, 0.52 16.36, 0.96 0.01" stroke="#087f5b" stroke-width="1" fill="none"></path></g><g transform="translate(820.5047607421875 527.0916442871094) rotate(0 76 12)"><text x="76" y="19" font-family="Cascadia, Segoe UI Emoji" font-size="20px" fill="#000000" text-anchor="middle" style="white-space: pre;" direction="ltr">display('hi')</text></g><g transform="translate(10 191.89495849609375) rotate(0 70.5 12)"><text x="70.5" y="19" font-family="Cascadia, Segoe UI Emoji" font-size="20px" fill="#000000" text-anchor="middle" style="white-space: pre;" direction="ltr">printHello()</text></g><g stroke-linecap="round"><g transform="translate(333.9091796875 273.684814453125) rotate(0 20.565008925274014 0.29095952613761256)"><path d="M1.65 0.93 C12.94 -1.27, 28.42 1.7, 41.45 0.83 M-0.89 -0.2 C16.34 -0.78, 31.64 0.01, 42.02 0.21" stroke="#000000" stroke-width="1" fill="none"></path></g><g transform="translate(333.9091796875 273.684814453125) rotate(0 20.565008925274014 0.29095952613761256)"><path d="M23.95 7.73 C28 3.07, 36.23 3.71, 41.9 0.58 M21.41 6.59 C30.59 3.6, 37.79 1.78, 42.47 -0.04" stroke="#000000" stroke-width="1" fill="none"></path></g><g transform="translate(333.9091796875 273.684814453125) rotate(0 20.565008925274014 0.29095952613761256)"><path d="M24.33 -6.49 C28.25 -6.43, 36.36 -1.08, 41.9 0.58 M21.79 -7.62 C30.74 -5.34, 37.81 -1.89, 42.47 -0.04" stroke="#000000" stroke-width="1" fill="none"></path></g></g><g stroke-linecap="round"><g transform="translate(146.6473388671875 205.90948486328125) rotate(0 20.45338723435998 28.809071626514196)"><path d="M-1.61 -1.24 C13.79 21.09, 29.73 36.86, 42.51 58.86 M-0.43 -0.89 C10.37 15.73, 22.46 30.14, 40.8 57.7" stroke="#000000" stroke-width="1" fill="none"></path></g><g transform="translate(146.6473388671875 205.90948486328125) rotate(0 20.45338723435998 28.809071626514196)"><path d="M14.74 39.08 C24.47 47.92, 34.56 50.32, 41.53 59.56 M15.91 39.43 C22.25 45.74, 29.82 49.82, 39.82 58.4" stroke="#000000" stroke-width="1" fill="none"></path></g><g transform="translate(146.6473388671875 205.90948486328125) rotate(0 20.45338723435998 28.809071626514196)"><path d="M31.63 27.42 C35.61 40.07, 40.01 46.41, 41.53 59.56 M32.8 27.77 C34.72 37.14, 37.89 44.26, 39.82 58.4" stroke="#000000" stroke-width="1" fill="none"></path></g></g><g transform="translate(746.65234375 566.5670166015625) rotate(0 30 11.5)"><text x="30" y="18" font-family="Helvetica, Segoe UI Emoji" font-size="20px" fill="#087f5b" text-anchor="middle" style="white-space: pre;" direction="ltr">304ms</text></g><g stroke-linecap="round" transform="translate(745.500244140625 563.2770690917969) rotate(0 30.69952392578125 14.190521240234375)"><path d="M0.39 -1.34 C16.35 0.56, 31.91 0.89, 62.87 -0.17 M-0.99 -0.71 C17.97 0.39, 34.07 -0.73, 60.93 -0.81 M61.23 -1.76 C61.2 12.9, 61.95 21.11, 60.59 28.44 M61.96 0.14 C60.91 9.01, 62.43 18.9, 61.35 27.42 M60.44 27.36 C43.38 29.57, 24.21 30.36, 1.96 29.13 M61.08 28.86 C45.02 29.43, 28.19 29.22, -0.48 28.35 M-0.16 27.63 C-1.62 23.89, -1.63 14.96, -1.17 1.6 M0.41 28.65 C0.74 17.57, -0.77 5.92, 0.27 -0.78" stroke="#087f5b" stroke-width="1" fill="none"></path></g><g transform="translate(822.7813720703125 566.1282043457031) rotate(0 70.5 12)"><text x="70.5" y="19" font-family="Cascadia, Segoe UI Emoji" font-size="20px" fill="#000000" text-anchor="middle" style="white-space: pre;" direction="ltr">printHello()</text></g><g transform="translate(1394.6103515625 644.9281005859375) rotate(0 30 11.5)"><text x="30" y="18" font-family="Helvetica, Segoe UI Emoji" font-size="20px" fill="#087f5b" text-anchor="middle" style="white-space: pre;" direction="ltr">302ms</text></g><g stroke-linecap="round" transform="translate(1393.555908203125 641.2467956542969) rotate(0 30.69952392578125 14.190521240234375)"><path d="M0.29 -0.32 C21.32 -0.23, 38.86 0.95, 60.48 -1.62 M-0.6 1 C17.95 -0.18, 36.22 0.7, 60.41 -0.14 M60.18 -1.66 C59.62 4.68, 62.1 13.34, 62.9 27 M60.69 -0.12 C61.59 6.25, 61.32 11.48, 62.2 29.26 M63.35 29.95 C40.84 30.1, 16.67 30.61, 1.75 30.35 M60.75 28.58 C49.08 28.6, 35.82 28.98, 0.6 28.52 M-1.82 27.66 C-1.67 21.99, 0.29 16.17, 0.72 -1.58 M-0.95 28.84 C-0.37 17.51, -0.36 6.96, -0.79 0.02" stroke="#087f5b" stroke-width="1" fill="none"></path></g><g transform="translate(1395.08056640625 687.0872802734375) rotate(0 30 11.5)"><text x="30" y="18" font-family="Helvetica, Segoe UI Emoji" font-size="20px" fill="#087f5b" text-anchor="middle" style="white-space: pre;" direction="ltr">303ms</text></g><g stroke-linecap="round" transform="translate(1394.026123046875 683.4059753417969) rotate(0 30.69952392578125 14.190521240234375)"><path d="M1.34 1.6 C19.1 -0.98, 37.86 -1.49, 62.21 0.91 M0.34 0.63 C20.76 1.07, 44.05 -0.38, 61.29 0.87 M60.9 1.13 C61 7.25, 63.08 19.42, 61.76 29.23 M62.24 -0.09 C61.49 9.13, 61.25 18.91, 61.7 28.05 M60.71 26.76 C37.32 27.89, 15.25 29.81, -1.93 28.02 M61.27 28.18 C44.8 28.17, 29.2 28.47, 0.69 28.91 M1.06 26.72 C-1.55 17.78, 1.38 9.06, -1.33 0.27 M0.14 28.43 C0.94 16.65, 1.21 7.4, 0.49 -0.17" stroke="#087f5b" stroke-width="1" fill="none"></path></g><g transform="translate(1396.09423828125 724.8469848632812) rotate(0 30 11.5)"><text x="30" y="18" font-family="Helvetica, Segoe UI Emoji" font-size="20px" fill="#087f5b" text-anchor="middle" style="white-space: pre;" direction="ltr">304ms</text></g><g stroke-linecap="round" transform="translate(1394.942138671875 721.5570373535156) rotate(0 30.69952392578125 14.190521240234375)"><path d="M-1.86 -1.19 C14.96 1.87, 26.44 1.93, 60.78 -1.25 M0.73 -0.62 C17.42 -1.2, 37.02 0.07, 61.32 0.54 M61.48 -1.7 C63.54 10.82, 63.59 21.41, 59.42 30.34 M61.59 0.15 C61.1 10.52, 61.16 23.39, 62.37 27.66 M60.57 30.37 C45.24 28.76, 26.16 29.78, -1.03 29.4 M61.51 28.62 C36.74 27.47, 14.08 28.62, -0.5 27.77 M1.5 26.6 C-0.96 21.84, -0.33 16.65, -1.93 -0.89 M0.79 28.64 C-0.76 21.2, 0.25 15.83, 0.53 -0.02" stroke="#087f5b" stroke-width="1" fill="none"></path></g><g transform="translate(1502.700439453125 687.4118957519531) rotate(0 23.5 12)"><text x="23.5" y="19" font-family="Cascadia, Segoe UI Emoji" font-size="20px" fill="#000000" text-anchor="middle" style="white-space: pre;" direction="ltr">'hi'</text></g><g transform="translate(1485.384033203125 726.7243347167969) rotate(0 41 12)"><text x="41" y="19" font-family="Cascadia, Segoe UI Emoji" font-size="20px" fill="#000000" text-anchor="middle" style="white-space: pre;" direction="ltr">'hello'</text></g><g stroke-linecap="round"><g transform="translate(295.729965126739 451.3525286270989) rotate(90.09395173992681 42.117122728439185 147.58925113983832)"><path d="M-0.17 -1.02 C-1.18 96.67, 0.02 194.38, 0.17 297.99 M-0.58 0.3 C-0.91 66.15, -1.38 132.93, -1.18 298.92 M-0.16 300.43 C31.47 298.61, 65.84 299.1, 83.99 299.95 M0.08 298.02 C20.12 298.11, 41.99 299.26, 83.93 301.21 M85.46 299.5 C84.94 214.8, 83.49 129.62, 82.96 -5.67 M84.67 300.28 C84.41 205.25, 83.03 109.9, 81.78 -6.03" stroke="#000000" stroke-width="1" fill="none"></path></g></g><g stroke-linecap="round"><g transform="translate(340.7167968749998 564.6600341796876) rotate(0 0.1854129945859313 40.68308620993048)"><path d="M0.37 0.09 C0.6 16.54, -2.36 34.99, 1.11 80.46 M-0.19 0.26 C-0.45 25.83, 0.88 52.44, -0.73 81.28" stroke="#364fc7" stroke-width="1" fill="none"></path></g></g><g transform="translate(209.85961914062477 586.2760620117188) rotate(0 52.5 12)"><text x="52.5" y="19" font-family="Cascadia, Segoe UI Emoji" font-size="20px" fill="#364fc7" text-anchor="middle" style="white-space: pre;" direction="ltr">-display-</text></g><g transform="translate(693.8045654296875 223.79669189453125) rotate(0 67.5 34.5)"><text x="67.5" y="18" font-family="Helvetica, Segoe UI Emoji" font-size="20px" fill="#c92a2a" text-anchor="middle" style="white-space: pre;" direction="ltr">{value: ...,</text><text x="67.5" y="41" font-family="Helvetica, Segoe UI Emoji" font-size="20px" fill="#c92a2a" text-anchor="middle" style="white-space: pre;" direction="ltr">onFulfilled: [],</text><text x="67.5" y="64" font-family="Helvetica, Segoe UI Emoji" font-size="20px" fill="#c92a2a" text-anchor="middle" style="white-space: pre;" direction="ltr">onRejection:[] }</text></g></svg>