<svg version="1.1" xmlns="http://www.w3.org/2000/svg" viewBox="0 0 2136.0767822265625 1085.090087890625" width="2136.0767822265625" height="1085.090087890625" filter="invert(93%) hue-rotate(180deg)">
  <!-- svg-source:excalidraw -->
  
  <defs>
    <style>
      @font-face {
        font-family: "Virgil";
        src: url("https://excalidraw.com/Virgil.woff2");
      }
      @font-face {
        font-family: "Cascadia";
        src: url("https://excalidraw.com/Cascadia.woff2");
      }
    </style>
  </defs>
  <rect x="0" y="0" width="2136.0767822265625" height="1085.090087890625" fill="#ffffff"></rect><g transform="translate(28.25250244140625 495.8658142089844) rotate(0 299.5 121.5)"><text x="0" y="22" font-family="Cascadia, Segoe UI Emoji" font-size="22.706222873263872px" fill="#1864ab" text-anchor="start" style="white-space: pre;" direction="ltr">function userCreator(name, score) {</text><text x="0" y="49" font-family="Cascadia, Segoe UI Emoji" font-size="22.706222873263872px" fill="#1864ab" text-anchor="start" style="white-space: pre;" direction="ltr"> this.name = name;</text><text x="0" y="76" font-family="Cascadia, Segoe UI Emoji" font-size="22.706222873263872px" fill="#1864ab" text-anchor="start" style="white-space: pre;" direction="ltr"> this.score = score;</text><text x="0" y="103" font-family="Cascadia, Segoe UI Emoji" font-size="22.706222873263872px" fill="#1864ab" text-anchor="start" style="white-space: pre;" direction="ltr">};</text><text x="0" y="130" font-family="Cascadia, Segoe UI Emoji" font-size="22.706222873263872px" fill="#1864ab" text-anchor="start" style="white-space: pre;" direction="ltr">userCreator.prototype // {};</text><text x="0" y="157" font-family="Cascadia, Segoe UI Emoji" font-size="22.706222873263872px" fill="#1864ab" text-anchor="start" style="white-space: pre;" direction="ltr">userCreator.prototype.increment = function(){</text><text x="0" y="184" font-family="Cascadia, Segoe UI Emoji" font-size="22.706222873263872px" fill="#1864ab" text-anchor="start" style="white-space: pre;" direction="ltr"> this.score++;</text><text x="0" y="211" font-family="Cascadia, Segoe UI Emoji" font-size="22.706222873263872px" fill="#1864ab" text-anchor="start" style="white-space: pre;" direction="ltr">}</text><text x="0" y="238" font-family="Cascadia, Segoe UI Emoji" font-size="22.706222873263872px" fill="#1864ab" text-anchor="start" style="white-space: pre;" direction="ltr">const user1 = new userCreator("Will", 3);</text></g><g stroke-linecap="round" transform="translate(10 469.20843505859375) rotate(0 312.40997314453125 153.66830444335938)"><path d="M0.43 0.61 C156.98 -2.31, 314.35 -2.37, 624.4 0.63 M-0.2 0.23 C194.68 -1.31, 388.9 -1.1, 624.48 0.2 M623.47 0.06 C626.75 71.66, 627.33 141.49, 624.17 307.28 M625.07 0.54 C624.01 83.11, 624.32 166.54, 624.3 306.86 M625.19 306.93 C379.89 309.94, 134.72 309.24, 0.55 308.09 M624.46 307.14 C415.96 307.66, 207.68 307.63, -0.25 306.94 M1.44 306.93 C-2.06 209.63, -2.25 113.33, 0.35 -0.91 M-0.19 307.98 C0.26 191.11, 0.03 76.4, -0.52 0.58" stroke="#000000" stroke-width="1" fill="none"></path></g><g stroke-linecap="round"><g transform="translate(1199.1173095703125 271.38226318359375) rotate(0 -0.08237527339724693 332.52580687217414)"><path d="M-0.94 -0.74 C-0.84 110.2, 0.24 554.85, 0.29 665.79 M0.77 1.49 C0.75 112.07, -0.11 553.25, -0.53 664.03" stroke="#000000" stroke-width="1" fill="none"></path></g></g><g stroke-linecap="round"><g transform="translate(1200.9398193359375 330.27447509765625) rotate(0 211.0614370625467 1.0769097588956242)"><path d="M-0.95 0.28 C69.53 0.7, 352.48 2.44, 423.07 2.77 M0.75 -0.62 C71.08 -0.61, 352.12 0.08, 422.28 0.75" stroke="#000000" stroke-width="1" fill="none"></path></g></g><g transform="translate(1263.1804606119792 289.70745849609375) rotate(0 104.32450358072913 16.4722900390625)"><text x="0" y="26.944580078125" font-family="Cascadia, Segoe UI Emoji" font-size="27.45381673177083px" fill="#000000" text-anchor="start" style="white-space: pre;" direction="ltr">global Memory</text></g><g transform="translate(1225.6348876953125 359.910888671875) rotate(0 111.5 12)"><text x="0" y="19" font-family="Cascadia, Segoe UI Emoji" font-size="20px" fill="#000000" text-anchor="start" style="white-space: pre;" direction="ltr">userCreator: -func-</text></g><g transform="translate(1284.9866943359375 390.79388427734375) rotate(0 111.5 36)"><text x="0" y="19" font-family="Cascadia, Segoe UI Emoji" font-size="20px" fill="#000000" text-anchor="start" style="white-space: pre;" direction="ltr">+ { prototype: {</text><text x="0" y="43" font-family="Cascadia, Segoe UI Emoji" font-size="20px" fill="#000000" text-anchor="start" style="white-space: pre;" direction="ltr">  increment: -func-</text><text x="0" y="67" font-family="Cascadia, Segoe UI Emoji" font-size="20px" fill="#000000" text-anchor="start" style="white-space: pre;" direction="ltr">            } }</text></g><g transform="translate(1552.0767822265625 369.35736083984375) rotate(0 287 36)"><text x="0" y="19" font-family="Cascadia, Segoe UI Emoji" font-size="20px" fill="#000000" text-anchor="start" style="white-space: pre;" direction="ltr">when create a function, create a function </text><text x="0" y="43" font-family="Cascadia, Segoe UI Emoji" font-size="20px" fill="#000000" text-anchor="start" style="white-space: pre;" direction="ltr">definition and and object with prototype property</text><text x="0" y="67" font-family="Cascadia, Segoe UI Emoji" font-size="20px" fill="#000000" text-anchor="start" style="white-space: pre;" direction="ltr">which value is empty object</text></g><g stroke-linecap="round"><g transform="translate(1550.6370849609375 389.8548107872037) rotate(0 -21.60324929726164 0.47754522251682374)"><path d="M0.17 0.43 C-7.04 0.68, -35.14 1.5, -42.23 1.34 M-1.2 -0.38 C-8.7 -0.44, -36.34 -0.38, -43.38 -0.26" stroke="#000000" stroke-width="1" fill="none"></path></g><g transform="translate(1550.6370849609375 389.8548107872037) rotate(0 -21.60324929726164 0.47754522251682374)"><path d="M-23.05 -8.22 C-29.73 -5.61, -40.44 -2.29, -44.42 -2 M-22.96 -7.09 C-28.56 -5.9, -33.86 -3.11, -44.18 0.42" stroke="#000000" stroke-width="1" fill="none"></path></g><g transform="translate(1550.6370849609375 389.8548107872037) rotate(0 -21.60324929726164 0.47754522251682374)"><path d="M-22.93 6.09 C-29.64 3.15, -40.4 0.91, -44.42 -2 M-22.84 7.23 C-28.58 4.46, -33.9 3.28, -44.18 0.42" stroke="#000000" stroke-width="1" fill="none"></path></g></g><g transform="translate(20.4993896484375 113.38702392578125) rotate(0 293 156)"><text x="0" y="19" font-family="Cascadia, Segoe UI Emoji" font-size="20px" fill="#000000" text-anchor="start" style="white-space: pre;" direction="ltr">function userCreator (name, score) {</text><text x="0" y="43" font-family="Cascadia, Segoe UI Emoji" font-size="20px" fill="#000000" text-anchor="start" style="white-space: pre;" direction="ltr"> const newUser = Object.create(userFunctionStore);</text><text x="0" y="67" font-family="Cascadia, Segoe UI Emoji" font-size="20px" fill="#000000" text-anchor="start" style="white-space: pre;" direction="ltr"> newUser.name = name;</text><text x="0" y="91" font-family="Cascadia, Segoe UI Emoji" font-size="20px" fill="#000000" text-anchor="start" style="white-space: pre;" direction="ltr"> newUser.score = score;</text><text x="0" y="115" font-family="Cascadia, Segoe UI Emoji" font-size="20px" fill="#000000" text-anchor="start" style="white-space: pre;" direction="ltr"> return newUser;</text><text x="0" y="139" font-family="Cascadia, Segoe UI Emoji" font-size="20px" fill="#000000" text-anchor="start" style="white-space: pre;" direction="ltr">};</text><text x="0" y="163" font-family="Cascadia, Segoe UI Emoji" font-size="20px" fill="#000000" text-anchor="start" style="white-space: pre;" direction="ltr">const userFunctionStore = {</text><text x="0" y="187" font-family="Cascadia, Segoe UI Emoji" font-size="20px" fill="#000000" text-anchor="start" style="white-space: pre;" direction="ltr"> increment: function(){this.score++;},</text><text x="0" y="211" font-family="Cascadia, Segoe UI Emoji" font-size="20px" fill="#000000" text-anchor="start" style="white-space: pre;" direction="ltr"> login: function(){console.log("Logged in");}</text><text x="0" y="235" font-family="Cascadia, Segoe UI Emoji" font-size="20px" fill="#000000" text-anchor="start" style="white-space: pre;" direction="ltr">};</text><text x="0" y="259" font-family="Cascadia, Segoe UI Emoji" font-size="20px" fill="#000000" text-anchor="start" style="white-space: pre;" direction="ltr">const user1 = userCreator("Will", 3);</text><text x="0" y="283" font-family="Cascadia, Segoe UI Emoji" font-size="20px" fill="#000000" text-anchor="start" style="white-space: pre;" direction="ltr">const user2 = userCreator("Tim", 5);</text><text x="0" y="307" font-family="Cascadia, Segoe UI Emoji" font-size="20px" fill="#000000" text-anchor="start" style="white-space: pre;" direction="ltr">user1.increment();</text></g><g stroke-linecap="round" transform="translate(11.7864990234375 96.69671630859375) rotate(0 306.7713623046875 176.55987548828125)"><path d="M0.54 0.04 C193.62 0.31, 386.81 -0.55, 612.8 0.01 M-0.3 -0.19 C226.8 0.61, 453.97 1.03, 613.46 -0.07 M613.83 0.79 C612 93.35, 613.1 185.7, 613 352.01 M614.18 0.07 C613.18 93.14, 613.83 186.16, 613.59 352.75 M613.78 353.35 C369.5 351.4, 124.21 350.67, -0.29 353.84 M613.34 352.77 C371.62 352.41, 128.84 352.16, -0.26 353.35 M0.7 354.25 C0.96 263.24, 0.46 175.6, -0.99 -0.83 M0.6 352.82 C-0.99 279.63, -1.92 205.76, -0.08 0.51" stroke="#000000" stroke-width="1" fill="none"></path></g><g transform="translate(734.1673583984375 311.2803955078125) rotate(0 199 24)"><text x="0" y="19" font-family="Cascadia, Segoe UI Emoji" font-size="20px" fill="#000000" text-anchor="start" style="white-space: pre;" direction="ltr">user1 = new userCreator('will', 3)</text><text x="0" y="43" font-family="Cascadia, Segoe UI Emoji" font-size="20px" fill="#000000" text-anchor="start" style="white-space: pre;" direction="ltr"></text></g><g stroke-linecap="round" transform="translate(731.0003662109375 356.2874755859375) rotate(0 211.552734375 184.5938720703125)"><path d="M0.29 0.31 C138.47 0.18, 275.16 0.47, 423.71 0.2 M0.24 -0.45 C162.18 -2.17, 324.95 -2.14, 422.73 0.38 M422.86 1 C425.61 109.14, 426.19 219.73, 422.45 368.15 M423.65 0.07 C422.47 119.62, 422.4 239.62, 423.39 368.63 M424.06 369.13 C317.95 370.4, 212.15 370.27, 0.73 369.05 M423.26 369.27 C326.03 367.78, 229.13 367.07, -0.1 368.91 M0.09 368.72 C-1.1 251.18, 0.66 134.82, 0.78 0 M0.24 368.86 C-0.43 248.71, -0.66 127.09, -0.36 0.48" stroke="#000000" stroke-width="1" fill="none"></path></g><g stroke-linecap="round"><g transform="translate(971.6541748046875 359.79345703125) rotate(0 -1.2503201930225032 180.1866652481258)"><path d="M-0.18 -0.69 C-0.66 59.34, -1.39 299.72, -1.86 359.61 M-1.74 1.56 C-2.38 61.83, -1.95 301.43, -2.32 361.07" stroke="#000000" stroke-width="1" fill="none"></path></g></g><g stroke-linecap="round"><g transform="translate(973.6636962890625 416.4508056640625) rotate(0 91.04018766209481 -0.2622350720316149)"><path d="M-0.95 -0.66 C29.28 -0.93, 150.52 -0.27, 180.76 -0.63 M0.75 1.61 C31.41 0.95, 152.68 -1.53, 183.03 -2.13" stroke="#000000" stroke-width="1" fill="none"></path></g></g><g transform="translate(985.6556396484375 376.34747314453125) rotate(0 70.5 12)"><text x="0" y="19" font-family="Cascadia, Segoe UI Emoji" font-size="20px" fill="#000000" text-anchor="start" style="white-space: pre;" direction="ltr">local memory</text></g><g transform="translate(978.3907470703125 431.27691650390625) rotate(0 70.5 24)"><text x="0" y="19" font-family="Cascadia, Segoe UI Emoji" font-size="20px" fill="#000000" text-anchor="start" style="white-space: pre;" direction="ltr">name: 'will'</text><text x="0" y="43" font-family="Cascadia, Segoe UI Emoji" font-size="20px" fill="#000000" text-anchor="start" style="white-space: pre;" direction="ltr">score: 3</text></g><g transform="translate(977.5057373046875 525.2503051757812) rotate(0 58.5 60)"><text x="0" y="19" font-family="Cascadia, Segoe UI Emoji" font-size="20px" fill="#1864ab" text-anchor="start" style="white-space: pre;" direction="ltr">{ </text><text x="0" y="43" font-family="Cascadia, Segoe UI Emoji" font-size="20px" fill="#1864ab" text-anchor="start" style="white-space: pre;" direction="ltr"> </text><text x="0" y="67" font-family="Cascadia, Segoe UI Emoji" font-size="20px" fill="#1864ab" text-anchor="start" style="white-space: pre;" direction="ltr"></text><text x="0" y="91" font-family="Cascadia, Segoe UI Emoji" font-size="20px" fill="#1864ab" text-anchor="start" style="white-space: pre;" direction="ltr">__proto__:</text><text x="0" y="115" font-family="Cascadia, Segoe UI Emoji" font-size="20px" fill="#1864ab" text-anchor="start" style="white-space: pre;" direction="ltr">}</text></g><g stroke-linecap="round"><g transform="translate(1114.4526690404862 595.4209086672538) rotate(0 181.35205627394055 -76.82536763833582)"><path d="M0.98 -0.65 C61.48 -26.47, 302.47 -129.53, 362.66 -155.28 M0.04 1.63 C60.5 -23.98, 301.97 -127.94, 362.24 -153.86" stroke="#1864ab" stroke-width="1" fill="none"></path></g><g transform="translate(1114.4526690404862 595.4209086672538) rotate(0 181.35205627394055 -76.82536763833582)"><path d="M339.32 -131.63 C346.03 -138.22, 352.16 -143.19, 362.56 -153.63 M341.12 -132.65 C343.97 -137.98, 348.54 -141.24, 361.44 -152.9" stroke="#1864ab" stroke-width="1" fill="none"></path></g><g transform="translate(1114.4526690404862 595.4209086672538) rotate(0 181.35205627394055 -76.82536763833582)"><path d="M331.21 -150.48 C340.07 -152.01, 348.41 -151.85, 362.56 -153.63 M333.01 -151.5 C337.48 -153.06, 343.7 -152.48, 361.44 -152.9" stroke="#1864ab" stroke-width="1" fill="none"></path></g></g><g transform="translate(1229.8172607421875 761.7054443359375) rotate(0 129 36)"><text x="0" y="19" font-family="Cascadia, Segoe UI Emoji" font-size="20px" fill="#000000" text-anchor="start" style="white-space: pre;" direction="ltr">user1: { name: 'will',</text><text x="0" y="43" font-family="Cascadia, Segoe UI Emoji" font-size="20px" fill="#000000" text-anchor="start" style="white-space: pre;" direction="ltr">         score: 3,</text><text x="0" y="67" font-family="Cascadia, Segoe UI Emoji" font-size="20px" fill="#000000" text-anchor="start" style="white-space: pre;" direction="ltr">         __proto__: }</text></g><g transform="translate(1222.6434326171875 609.1700439453125) rotate(0 234.5 24)"><text x="0" y="19" font-family="Cascadia, Segoe UI Emoji" font-size="20px" fill="#000000" text-anchor="start" style="white-space: pre;" direction="ltr">userCreator.prototype // {};</text><text x="0" y="43" font-family="Cascadia, Segoe UI Emoji" font-size="20px" fill="#000000" text-anchor="start" style="white-space: pre;" direction="ltr">userCreator.prototype.increment = -func-</text></g><g transform="translate(863.305908203125 32.52288818359375) rotate(0 439.5 60)"><text x="0" y="19" font-family="Cascadia, Segoe UI Emoji" font-size="20px" fill="#000000" text-anchor="start" style="white-space: pre;" direction="ltr">what does new keyword do;</text><text x="0" y="43" font-family="Cascadia, Segoe UI Emoji" font-size="20px" fill="#000000" text-anchor="start" style="white-space: pre;" direction="ltr">1. create a new object;</text><text x="0" y="67" font-family="Cascadia, Segoe UI Emoji" font-size="20px" fill="#000000" text-anchor="start" style="white-space: pre;" direction="ltr">2. return the this object;</text><text x="0" y="91" font-family="Cascadia, Segoe UI Emoji" font-size="20px" fill="#000000" text-anchor="start" style="white-space: pre;" direction="ltr">3. the way to refer to the auto-create object is `this` keyword, create it;</text><text x="0" y="115" font-family="Cascadia, Segoe UI Emoji" font-size="20px" fill="#000000" text-anchor="start" style="white-space: pre;" direction="ltr">4. where to put functions is the function's `prototype` property, link it;</text></g><g stroke-linecap="round" transform="translate(841.92431640625 10) rotate(0 468.64532470703125 89.75897216796875)"><path d="M-0.65 0.72 C225.51 0.22, 452.43 0.56, 937.79 -0.14 M-0.05 0.37 C216.96 -0.47, 433.56 -0.36, 936.94 -0.14 M936.42 1.55 C936.65 56.49, 936.03 115.56, 937.74 179.61 M937.78 -0.97 C937.49 54.47, 936.5 106.61, 936.39 180.18 M937.37 180 C610.19 175.62, 284.55 175.94, 0.56 179.35 M937.65 179.29 C633.91 179.71, 330.58 179.32, -0.22 179.7 M-0.36 178.11 C2.14 136.29, 0.43 91.27, -0.44 1.87 M0.21 178.63 C-0.74 131.74, -2.4 82.79, 0.1 0.84" stroke="#000000" stroke-width="1" fill="none"></path></g><g transform="translate(982.7408447265625 553.0625610351562) rotate(0 70.5 24)"><text x="0" y="19" font-family="Cascadia, Segoe UI Emoji" font-size="20px" fill="#000000" text-anchor="start" style="white-space: pre;" direction="ltr">name:'will',</text><text x="0" y="43" font-family="Cascadia, Segoe UI Emoji" font-size="20px" fill="#000000" text-anchor="start" style="white-space: pre;" direction="ltr"> score: 3,</text></g><g transform="translate(742.1470947265625 403.2117919921875) rotate(0 103 38)"><text x="0" y="15" font-family="Cascadia, Segoe UI Emoji" font-size="15.277837117513014px" fill="#1864ab" text-anchor="start" style="white-space: pre;" direction="ltr">1. this: {}</text><text x="0" y="34" font-family="Cascadia, Segoe UI Emoji" font-size="15.277837117513014px" fill="#1864ab" text-anchor="start" style="white-space: pre;" direction="ltr">2. this.__proto__</text><text x="0" y="53" font-family="Cascadia, Segoe UI Emoji" font-size="15.277837117513014px" fill="#1864ab" text-anchor="start" style="white-space: pre;" direction="ltr">= userCreator.prototype</text><text x="0" y="72" font-family="Cascadia, Segoe UI Emoji" font-size="15.277837117513014px" fill="#1864ab" text-anchor="start" style="white-space: pre;" direction="ltr">3. return this</text></g><g stroke-linecap="round"><g transform="translate(1648.6190185546875 633.8864135742188) rotate(0 -85.68144297830759 -98.5018009405583)"><path d="M-0.72 1.15 C-29.4 -31.81, -143.06 -165.27, -171.79 -198.15 M1.1 0.7 C-27.72 -32.11, -143.84 -164.08, -172.47 -197.19" stroke="#1864ab" stroke-width="1" fill="none"></path></g><g transform="translate(1648.6190185546875 633.8864135742188) rotate(0 -85.68144297830759 -98.5018009405583)"><path d="M-144.29 -181.85 C-156.54 -188.92, -161.7 -192.01, -173.4 -197.88 M-147.14 -183.34 C-154.08 -187.56, -164.31 -191.92, -173.35 -197.08" stroke="#1864ab" stroke-width="1" fill="none"></path></g><g transform="translate(1648.6190185546875 633.8864135742188) rotate(0 -85.68144297830759 -98.5018009405583)"><path d="M-159.74 -168.35 C-166.91 -179.72, -167.04 -187.21, -173.4 -197.88 M-162.59 -169.84 C-164.24 -178.51, -169.3 -187.39, -173.35 -197.08" stroke="#1864ab" stroke-width="1" fill="none"></path></g></g><g stroke-linecap="round"><g transform="translate(1462.3223876953125 819.7784423828125) rotate(0 7.333587326118732 -188.7387843448669)"><path d="M-0.19 0.87 C2.67 -62.09, 13.91 -315.3, 16.42 -378.35 M-1.75 0.28 C1.11 -62.49, 13.38 -314.47, 15.97 -377.19" stroke="#1864ab" stroke-width="1" fill="none"></path></g><g transform="translate(1462.3223876953125 819.7784423828125) rotate(0 7.333587326118732 -188.7387843448669)"><path d="M26.39 -346.98 C21.76 -356.34, 21.16 -363.13, 14.69 -376.56 M25.68 -349.37 C22 -356.13, 20.6 -364.66, 15.55 -376.6" stroke="#1864ab" stroke-width="1" fill="none"></path></g><g transform="translate(1462.3223876953125 819.7784423828125) rotate(0 7.333587326118732 -188.7387843448669)"><path d="M5.89 -347.91 C6.09 -357.02, 10.33 -363.59, 14.69 -376.56 M5.18 -350.3 C7.27 -356.9, 11.63 -365.16, 15.55 -376.6" stroke="#1864ab" stroke-width="1" fill="none"></path></g></g><g stroke-linecap="round"><g transform="translate(995.2835693359375 654.0753173828125) rotate(0 57.66655577690335 0.8924899738281624)"><path d="M0.9 -0.57 C20.29 -0.36, 96.21 1.89, 115.42 2.36 M-0.08 1.74 C19.21 2.16, 95.07 1.07, 114.37 0.86" stroke="#1864ab" stroke-width="1" fill="none"></path></g></g><g transform="translate(1001.7489013671875 664.559814453125) rotate(0 35 12)"><text x="0" y="19" font-family="Cascadia, Segoe UI Emoji" font-size="20px" fill="#1864ab" text-anchor="start" style="white-space: pre;" direction="ltr">return</text></g><g stroke-linecap="round"><g transform="translate(1073.1436767578125 680.7737426757812) rotate(0 78.30748661294581 45.345479297488964)"><path d="M0.67 0.56 C26.86 15.84, 130.9 75.7, 157.05 90.89 M-0.44 -0.2 C25.58 14.77, 129.71 73.88, 155.93 88.91" stroke="#1864ab" stroke-width="1" fill="none"></path></g><g transform="translate(1073.1436767578125 680.7737426757812) rotate(0 78.30748661294581 45.345479297488964)"><path d="M127.29 83.31 C135.4 85.5, 145.41 88.25, 155.79 89.9 M125.68 83.06 C132.98 85.35, 141.21 86.13, 155 88.87" stroke="#1864ab" stroke-width="1" fill="none"></path></g><g transform="translate(1073.1436767578125 680.7737426757812) rotate(0 78.30748661294581 45.345479297488964)"><path d="M137.45 65.49 C142.47 72.93, 149.52 80.88, 155.79 89.9 M135.84 65.23 C140.73 71.93, 146.43 77.16, 155 88.87" stroke="#1864ab" stroke-width="1" fill="none"></path></g></g><g transform="translate(743.1915283203125 788.1827392578125) rotate(0 99.5 12)"><text x="0" y="19" font-family="Cascadia, Segoe UI Emoji" font-size="20px" fill="#000000" text-anchor="start" style="white-space: pre;" direction="ltr">user1.increment()</text></g><g stroke-linecap="round"><g transform="translate(1215.1727872595281 357.32744976960123) rotate(0 -0.2964028440906077 56.57234664063901)"><path d="M-0.33 0.49 C-0.63 19.32, -2.09 93.57, -2.29 112.51 M1.69 -0.29 C1.84 18.68, 0.75 94.72, 0.09 113.44" stroke="#c92a2a" stroke-width="1" fill="none"></path></g></g><g stroke-linecap="round"><g transform="translate(1215.0336569290607 356.2722052099556) rotate(0 125.50716624762867 0.15377831571913703)"><path d="M-1.08 -0.96 C40.75 -0.9, 209.9 -0.46, 252.1 -0.47 M0.55 1.15 C42.14 1.46, 209.4 1.1, 251.21 0.87" stroke="#c92a2a" stroke-width="1" fill="none"></path></g></g><g transform="translate(1200.4693603515625 333.16473388671875) rotate(0 29.5 12)"><text x="0" y="19" font-family="Cascadia, Segoe UI Emoji" font-size="20px" fill="#c92a2a" text-anchor="start" style="white-space: pre;" direction="ltr">class</text></g><g stroke-linecap="round" transform="translate(1224.6551513671875 363.7215576171875) rotate(0 115.740478515625 10.60699462890625)"><path d="M1.2 -0.08 C62.97 1.1, 128.07 -0.07, 231.86 0.1 M-0.1 -0.75 C72.74 -0.21, 145.06 -1.06, 231.61 -0.7 M231.65 -1.03 C230.78 2.93, 233.5 7.21, 232.95 22.62 M230.72 0.47 C232.3 8.57, 231.19 16.23, 231.93 20.74 M232.44 20.03 C166.51 22.75, 98.93 23.7, 1.46 22.43 M231.98 21.61 C175.49 19.85, 120.33 19.58, 0.14 20.59 M-1.1 21.42 C0.66 16.08, 0.87 6.97, -1.86 -0.5 M-0.57 20.92 C-0.35 16.39, -0.72 9.37, -0.59 0.96" stroke="#c92a2a" stroke-width="1" fill="none"></path></g><g stroke-linecap="round"><g transform="translate(1455.2806396484375 372.70263671875) rotate(0 21.399047197774053 -8.242604092517865)"><path d="M-0.98 -1.06 C6.13 -3.96, 36.5 -14.94, 43.77 -17.48 M0.71 0.99 C7.57 -1.76, 35.52 -13.09, 42.91 -16.32" stroke="#c92a2a" stroke-width="1" fill="none"></path></g><g transform="translate(1455.2806396484375 372.70263671875) rotate(0 21.399047197774053 -8.242604092517865)"><path d="M23.98 -0.19 C31.37 -8.14, 40.19 -13.12, 42.39 -17.69 M25.67 -1.1 C30.95 -5.22, 34.21 -9.06, 42.7 -16.16" stroke="#c92a2a" stroke-width="1" fill="none"></path></g><g transform="translate(1455.2806396484375 372.70263671875) rotate(0 21.399047197774053 -8.242604092517865)"><path d="M17.81 -14.93 C27.64 -16.99, 38.9 -16.12, 42.39 -17.69 M19.5 -15.84 C26.32 -16.07, 31.24 -15.96, 42.7 -16.16" stroke="#c92a2a" stroke-width="1" fill="none"></path></g></g><g transform="translate(1502.0035400390625 344.5321044921875) rotate(0 76 12)"><text x="0" y="19" font-family="Cascadia, Segoe UI Emoji" font-size="20px" fill="#c92a2a" text-anchor="start" style="white-space: pre;" direction="ltr">constructor()</text></g><g transform="translate(18.436279296875 807.2266845703125) rotate(0 234.5 120)"><text x="0" y="19" font-family="Cascadia, Segoe UI Emoji" font-size="20px" fill="#c92a2a" text-anchor="start" style="white-space: pre;" direction="ltr">class UserCreator {</text><text x="0" y="43" font-family="Cascadia, Segoe UI Emoji" font-size="20px" fill="#c92a2a" text-anchor="start" style="white-space: pre;" direction="ltr"> constructor (name, score){</text><text x="0" y="67" font-family="Cascadia, Segoe UI Emoji" font-size="20px" fill="#c92a2a" text-anchor="start" style="white-space: pre;" direction="ltr"> this.name = name;</text><text x="0" y="91" font-family="Cascadia, Segoe UI Emoji" font-size="20px" fill="#c92a2a" text-anchor="start" style="white-space: pre;" direction="ltr"> this.score = score;</text><text x="0" y="115" font-family="Cascadia, Segoe UI Emoji" font-size="20px" fill="#c92a2a" text-anchor="start" style="white-space: pre;" direction="ltr"> }</text><text x="0" y="139" font-family="Cascadia, Segoe UI Emoji" font-size="20px" fill="#c92a2a" text-anchor="start" style="white-space: pre;" direction="ltr"> increment (){ this.score++; }</text><text x="0" y="163" font-family="Cascadia, Segoe UI Emoji" font-size="20px" fill="#c92a2a" text-anchor="start" style="white-space: pre;" direction="ltr"> login (){ console.log("login"); }</text><text x="0" y="187" font-family="Cascadia, Segoe UI Emoji" font-size="20px" fill="#c92a2a" text-anchor="start" style="white-space: pre;" direction="ltr">}</text><text x="0" y="211" font-family="Cascadia, Segoe UI Emoji" font-size="20px" fill="#c92a2a" text-anchor="start" style="white-space: pre;" direction="ltr">const user1 = new UserCreator("Eva", 9);</text><text x="0" y="235" font-family="Cascadia, Segoe UI Emoji" font-size="20px" fill="#c92a2a" text-anchor="start" style="white-space: pre;" direction="ltr">user1.increment();</text></g><g stroke-linecap="round" transform="translate(12.0194091796875 789.5371704101562) rotate(0 276.90191650390625 142.77645874023438)"><path d="M0.77 0.65 C155.08 0.85, 310.2 0.42, 554.46 0.28 M-0.34 0.25 C111.75 -0.16, 223.5 0.08, 553.77 0.06 M554.12 -0.52 C553.93 64.29, 553.04 131.57, 553.08 284.84 M553.63 -0.36 C554.83 103.3, 553.78 207.62, 553.92 285.53 M553.65 285.06 C343.4 287.13, 134.57 286, 0.61 286.27 M553.98 285.31 C357.78 287.74, 161.94 287.59, 0.01 285.85 M0.84 285.87 C2.83 227.43, 1.36 168.26, 0.49 -0.22 M-0.32 285.99 C-0.27 185.02, 0.81 85.28, 0 -0.03" stroke="#000000" stroke-width="1" fill="none"></path></g></svg>